<svg id="Layer_1" data-name="Layer 1" xmlns="http://www.w3.org/2000/svg" xmlns:xlink="http://www.w3.org/1999/xlink" viewBox="0 0 379.32 131.56"><defs><style>.cls-1{fill:#c6000d;}.cls-2{fill:#00b3e4;}.cls-3{fill:url(#linear-gradient);}.cls-4{fill:#fff;}</style><linearGradient id="linear-gradient" y1="65.78" x2="119.72" y2="65.78" gradientUnits="userSpaceOnUse"><stop offset="0" stop-color="#00b3e4"/><stop offset="1" stop-color="#007cac"/></linearGradient></defs><path class="cls-1" d="M135.51,65.56l16.71-40.71h12.26l17.1,40.71H168.37l-2.94-7.73H151.49l-2.82,7.73Zm22.25-26.31-3.62,11h8.53l-3.62-11a11.4,11.4,0,0,1-.67-3.67,11.66,11.66,0,0,1-.14,1.78A13.81,13.81,0,0,1,157.76,39.25Z" transform="translate(0.85)"/><path class="cls-1" d="M214.61,27.17v9.65a26,26,0,0,0-5.25-2.2,19.08,19.08,0,0,0-5.13-.68,12.58,12.58,0,0,0-8.93,3.11,10.81,10.81,0,0,0-3.33,8.3,10.72,10.72,0,0,0,3.33,8.13,12.11,12.11,0,0,0,8.7,3.16,17.77,17.77,0,0,0,5.5-.79A24.08,24.08,0,0,0,215.07,53V63a30.6,30.6,0,0,1-13.56,3.28q-9.64,0-15.81-5.76a19.43,19.43,0,0,1-6.15-14.85,20.6,20.6,0,0,1,6.24-15.44q6.24-6.08,15.78-6.07A31.05,31.05,0,0,1,214.61,27.17Z" transform="translate(0.85)"/><path class="cls-1" d="M219.19,65.56V24.85h12.19V40.72H246V24.85h12.25V65.56h-12.2V49.25H231.38V65.56Z" transform="translate(0.85)"/><path class="cls-1" d="M263.12,65.56V24.85h12.19V65.56Z" transform="translate(0.85)"/><path class="cls-1" d="M280.22,65.56V24.85h27.45v8.53H292.42v7.23h14.51V49H292.36V57H308v8.52Z" transform="translate(0.85)"/><path class="cls-1" d="M307.61,24.85h13.21l7.79,21.46.51,1.64a5.85,5.85,0,0,1,.4,2.48,9.87,9.87,0,0,1,.08-1.5,5.61,5.61,0,0,1,.25-1l.51-1.7,6.33-21.4H349.9L333,65.56h-8.13Z" transform="translate(0.85)"/><path class="cls-1" d="M350.69,65.56V24.85h27.44v8.53H362.89v7.23H377.4V49H362.83V57h15.64v8.52Z" transform="translate(0.85)"/><path class="cls-2" d="M135.51,92.08V69.83h15v4.66h-8.34v4h7.94V83h-8v4.41h8.55v4.66Z" transform="translate(0.85)"/><path class="cls-2" d="M152.7,92.08V75.38h6.23v2.44A6.61,6.61,0,0,1,164.21,75a5.11,5.11,0,0,1,3.89,1.58,5.82,5.82,0,0,1,1.48,4.13V92.08h-6.27V82.91a6,6,0,0,0-.12-1.28,1.67,1.67,0,0,0-.57-.92,1.65,1.65,0,0,0-1.13-.39,3.43,3.43,0,0,0-2.56,1.51V92.08Z" transform="translate(0.85)"/><path class="cls-2" d="M174.67,92.15A2.24,2.24,0,0,1,173,90a2.08,2.08,0,0,1,.64-1.49,4,4,0,0,1,1.82-1q-4-1.8-4-5.71A6,6,0,0,1,173.62,77a8,8,0,0,1,5.46-1.85c.41,0,.74,0,1,0s.63.08,1.18.18h6.3V78.9h-2.19a5.59,5.59,0,0,1,1.05,3.18,5.1,5.1,0,0,1-1.3,3.48,7.49,7.49,0,0,1-3.7,2.16l-1,.3q-1.17.38-1.17,1.08c0,.31.2.55.61.73a12.76,12.76,0,0,0,2.32.54q5,.73,5,4.46a4.52,4.52,0,0,1-2.27,4,11.78,11.78,0,0,1-6.37,1.45,11.43,11.43,0,0,1-5.7-1.22,3.66,3.66,0,0,1-2.11-3.28,2.9,2.9,0,0,1,1-2.22A6.82,6.82,0,0,1,174.67,92.15Zm4,2-1.36-.28A2.14,2.14,0,0,0,176,95.6a1.36,1.36,0,0,0,.8,1.2,4.07,4.07,0,0,0,2.07.46,4.29,4.29,0,0,0,2.08-.43,1.29,1.29,0,0,0,.79-1.14,1.13,1.13,0,0,0-.87-1.11Zm.25-14.85a2.08,2.08,0,0,0-1.59.67,2.26,2.26,0,0,0-.63,1.62,2.53,2.53,0,0,0,.64,1.76,2.08,2.08,0,0,0,1.58.71,2.17,2.17,0,0,0,1.63-.71,2.43,2.43,0,0,0,.68-1.76,2.27,2.27,0,0,0-2.31-2.29Z" transform="translate(0.85)"/><path class="cls-2" d="M188.31,92.08V69.83h6.23V92.08Z" transform="translate(0.85)"/><path class="cls-2" d="M197.23,72.48a4.36,4.36,0,0,1,.93-2.8,2.7,2.7,0,0,1,2.19-1.18,2.84,2.84,0,0,1,2.22,1.08,3.89,3.89,0,0,1,.92,2.63,2.27,2.27,0,0,1-.86,1.79,3.19,3.19,0,0,1-2.13.74,3.88,3.88,0,0,1-2.19-.62A2.31,2.31,0,0,1,197.23,72.48Zm0,19.6V75.38h6.23v16.7Z" transform="translate(0.85)"/><path class="cls-2" d="M217.57,76.37v4.32l-.81-.58a5.75,5.75,0,0,0-3.21-1,1.79,1.79,0,0,0-1.08.31,1,1,0,0,0-.43.8,1,1,0,0,0,.23.69,3.75,3.75,0,0,0,1,.67l1.35.65a8.3,8.3,0,0,1,2.91,2A4.28,4.28,0,0,1,218.4,87a4.91,4.91,0,0,1-1.82,4,7.25,7.25,0,0,1-4.79,1.51,15.81,15.81,0,0,1-3.67-.46L207,91.68c-.59-.19-1-.34-1.32-.46V86.4a8.18,8.18,0,0,0,4.62,2,1.74,1.74,0,0,0,1.18-.37,1.21,1.21,0,0,0,.43-1,1.17,1.17,0,0,0-.31-.83,4.49,4.49,0,0,0-1.17-.8l-1.27-.68-1.79-1a4.38,4.38,0,0,1-1.73-3.61,4.68,4.68,0,0,1,1.67-3.74A6.6,6.6,0,0,1,211.76,75a12.82,12.82,0,0,1,3.49.53,7.48,7.48,0,0,1,1.05.34Z" transform="translate(0.85)"/><path class="cls-2" d="M220.37,92.08V69.83h6.24v7.84A6.43,6.43,0,0,1,231.67,75a5.15,5.15,0,0,1,4,1.61A6.2,6.2,0,0,1,237.13,81V92.08H230.9V82.91a5.59,5.59,0,0,0-.1-1.23A1.71,1.71,0,0,0,229,80.26a3,3,0,0,0-2.37,1.51V92.08Z" transform="translate(0.85)"/><path class="cls-2" d="M248.73,92.08V69.83h6.67V87.3h8.76v4.78Z" transform="translate(0.85)"/><path class="cls-2" d="M280,84.61H269.84q.35,3.49,4.45,3.49a12.22,12.22,0,0,0,5.43-1.7v4.08A16.59,16.59,0,0,1,276.17,92a12.57,12.57,0,0,1-3.46.46A9.11,9.11,0,0,1,266.09,90a9.53,9.53,0,0,1-.18-12.69,8,8,0,0,1,6-2.42,7.64,7.64,0,0,1,6,2.39A9.48,9.48,0,0,1,280,83.9Zm-7.57-5.43a2.29,2.29,0,0,0-1.62.63,2.9,2.9,0,0,0-.81,1.75h4.75a2.9,2.9,0,0,0-.73-1.75A2.09,2.09,0,0,0,272.43,79.18Z" transform="translate(0.85)"/><path class="cls-2" d="M290.67,82.15v-1a1.44,1.44,0,0,0-.52-1.18,2.14,2.14,0,0,0-1.41-.43,7.89,7.89,0,0,0-4.49,1.64,11.43,11.43,0,0,0-1.66,1.45V77.67c.1-.08.34-.25.71-.5a6.46,6.46,0,0,1,.55-.34,12.55,12.55,0,0,1,6.39-1.75,7.25,7.25,0,0,1,4.86,1.52,5.16,5.16,0,0,1,1.81,4.14v6.07c0,1,.33,1.54,1,1.54A2.37,2.37,0,0,0,299,88l-.93,3.82a19.64,19.64,0,0,1-2.35.56,11.45,11.45,0,0,1-1.78.15,5.47,5.47,0,0,1-2-.27,3.06,3.06,0,0,1-1.23-1,9.77,9.77,0,0,1-2.06,1,6.66,6.66,0,0,1-2,.32,5.54,5.54,0,0,1-3.64-1.17,3.76,3.76,0,0,1-1.42-3,3.83,3.83,0,0,1,.86-2.54,6.19,6.19,0,0,1,1.79-1.41,18.09,18.09,0,0,1,3.17-1.25l2.21-.68.21-.09Zm0,6.2V85.17a9.47,9.47,0,0,0-2.62,1.23,1.81,1.81,0,0,0-.8,1.45,1.51,1.51,0,0,0,.38,1,1.39,1.39,0,0,0,1,.41A3.1,3.1,0,0,0,290.67,88.35Z" transform="translate(0.85)"/><path class="cls-2" d="M299.93,92.08V75.38h6.23v3.37Q308.37,75,310.7,75a5.31,5.31,0,0,1,1.79.33,9.85,9.85,0,0,1,2,1l-2.32,5.62a5.06,5.06,0,0,0-2.74-1.05,2.8,2.8,0,0,0-2.33,1.28,5.23,5.23,0,0,0-.95,3.19v6.73Z" transform="translate(0.85)"/><path class="cls-2" d="M315.15,92.08V75.38h6.23v2.44A6.61,6.61,0,0,1,326.66,75a5.07,5.07,0,0,1,3.88,1.58A5.78,5.78,0,0,1,332,80.69V92.08h-6.27V82.91a6,6,0,0,0-.12-1.28,1.73,1.73,0,0,0-.57-.92,1.67,1.67,0,0,0-1.13-.39,3.43,3.43,0,0,0-2.56,1.51V92.08Z" transform="translate(0.85)"/><path class="cls-2" d="M334.71,72.48a4.36,4.36,0,0,1,.93-2.8,2.7,2.7,0,0,1,2.19-1.18,2.84,2.84,0,0,1,2.22,1.08,3.9,3.9,0,0,1,.93,2.63,2.28,2.28,0,0,1-.87,1.79,3.19,3.19,0,0,1-2.13.74,3.88,3.88,0,0,1-2.19-.62A2.31,2.31,0,0,1,334.71,72.48Zm0,19.6V75.38h6.23v16.7Z" transform="translate(0.85)"/><path class="cls-2" d="M343.63,92.08V75.38h6.23v2.44A6.61,6.61,0,0,1,355.14,75,5.11,5.11,0,0,1,359,76.56a5.78,5.78,0,0,1,1.48,4.13V92.08h-6.27V82.91a6,6,0,0,0-.12-1.28,1.67,1.67,0,0,0-.57-.92,1.65,1.65,0,0,0-1.13-.39,3.43,3.43,0,0,0-2.56,1.51V92.08Z" transform="translate(0.85)"/><path class="cls-2" d="M365.6,92.15A2.24,2.24,0,0,1,364,90a2.08,2.08,0,0,1,.64-1.49,4,4,0,0,1,1.82-1q-4-1.8-4-5.71A6,6,0,0,1,364.55,77,8,8,0,0,1,370,75.17c.41,0,.74,0,1,0s.63.08,1.18.18h6.3V78.9h-2.19a5.59,5.59,0,0,1,1.05,3.18,5.1,5.1,0,0,1-1.3,3.48,7.49,7.49,0,0,1-3.7,2.16l-1,.3q-1.17.38-1.17,1.08c0,.31.2.55.61.73a12.76,12.76,0,0,0,2.32.54q5,.73,5,4.46a4.52,4.52,0,0,1-2.27,4,11.78,11.78,0,0,1-6.37,1.45,11.43,11.43,0,0,1-5.7-1.22,3.66,3.66,0,0,1-2.11-3.28,2.9,2.9,0,0,1,1-2.22A6.82,6.82,0,0,1,365.6,92.15Zm4,2-1.36-.28a2.14,2.14,0,0,0-1.29,1.76,1.36,1.36,0,0,0,.8,1.2,4.07,4.07,0,0,0,2.07.46,4.29,4.29,0,0,0,2.08-.43,1.29,1.29,0,0,0,.79-1.14,1.13,1.13,0,0,0-.87-1.11Zm.25-14.85a2.08,2.08,0,0,0-1.59.67,2.26,2.26,0,0,0-.63,1.62,2.53,2.53,0,0,0,.64,1.76,2.08,2.08,0,0,0,1.58.71,2.17,2.17,0,0,0,1.63-.71,2.43,2.43,0,0,0,.68-1.76,2.27,2.27,0,0,0-2.31-2.29Z" transform="translate(0.85)"/><path class="cls-3" d="M108.82,84.66l-7.34,4.24-.46.26L70.76,106.64l-38.06,22A21.8,21.8,0,0,1,0,109.73V21.83A21.8,21.8,0,0,1,32.7,3L70.56,24.82l.2.11,7.89,4.55L108.82,46.9A21.8,21.8,0,0,1,108.82,84.66Z" transform="translate(0.85)"/><path class="cls-4" d="M101.52,82.82a4.21,4.21,0,0,0-2-.61,11,11,0,0,0-1.91,0,25.37,25.37,0,0,0-3.62.65c-1.52.39-3,.84-4.49,1.34-3.07,1-6,2.28-9,3.57-2,.87-4,1.71-6,2.6-1.5.75-3,1.49-4.48,2.21-9.27,4.52-17.76,8.4-20,9.46a22.93,22.93,0,0,1-9.66,2.47,8.53,8.53,0,0,1-7-3c-1.6-2-2.42-5.55-2.42-10.64a66.72,66.72,0,0,1,1-11.06q20.4-9.24,26.64-12.78Q71,59.76,75.81,53a23.44,23.44,0,0,0,4.83-13.76,14.37,14.37,0,0,0-2.84-9.18,11.07,11.07,0,0,0-1.18-1.29,13.68,13.68,0,0,0-6.91-3.37A23.3,23.3,0,0,0,65,24.94q-21.81,0-37.49,25.9A94.63,94.63,0,0,0,15.31,80.13l-.09,0c-.4.22-.8.46-1.2.69-2,1.22-4,2.38-6.12,3.5S3.74,86.5,1.63,87.5c-.82.39-1.65.78-2.48,1.14v2.54L.29,90.8c3.07-1,6.05-2.28,9-3.56,1.69-.75,3.4-1.46,5.09-2.21a76.3,76.3,0,0,0-.88,11.57q0,11.37,4,16.54t11.66,5.16c7.45,0,27-11,45.38-23.42.4-.22.8-.46,1.2-.69,2-1.22,4-2.38,6.12-3.5s4.16-2.16,6.27-3.15a68.86,68.86,0,0,1,6.41-2.73,24.85,24.85,0,0,1,3.27-1,9.3,9.3,0,0,1,1.63-.2,2.87,2.87,0,0,1,1.39.23c.75.3.79,1.49.48,2.56A16.75,16.75,0,0,1,100,89.65l.14.08.21.12.25-.38a16.07,16.07,0,0,0,1.52-2.77,5.33,5.33,0,0,0,.39-1.91A2.34,2.34,0,0,0,101.52,82.82ZM40.14,48.9c2.29-5.38,5.13-9.38,8.49-12a12.35,12.35,0,0,1,7.74-3,8,8,0,0,1,6.28,2.74A10.72,10.72,0,0,1,65.07,44q0,6.12-5.91,12.35-8.7,8.92-26,16.65A109,109,0,0,1,40.14,48.9Z" transform="translate(0.85)"/><path class="cls-4" d="M62.44,52.84" transform="translate(0.85)"/></svg>